# xmcd
#
# Track frame offsets:
#   150
#   21750
#   41938
#   60635
#   78328
#   97420
#   119628
#   134570
#   154768
#   171118
#   185945
#   205343
#
# Disc length: 2964 seconds
#
# Revision: 0
# Processed by: cddbd v1.5.1PL0 Copyright (c) Steve Scherf et al.
# Submitted via: uFREEDB 1.6.0
#
DISCID=b70b920c
DTITLE=Blue Stew - Long Gone
DYEAR=1996
DGENRE=Blues
TTITLE0=Long Gone
TTITLE1=Got A Hold On Me So Strong
TTITLE2=Where You Belong
TTITLE3=High Roller
TTITLE4=Leave Me In My Blues
TTITLE5=So Many Women, So Little Time
TTITLE6=It Has Crossed My Mind
TTITLE7=Mean Mistreater
TTITLE8=Lne Star Saloon
TTITLE9=Your Little Angel
TTITLE10=Too Many Drivers
TTITLE11=Hip Shade
EXTD=
EXTT0=
EXTT1=
EXTT2=
EXTT3=
EXTT4=
EXTT5=
EXTT6=
EXTT7=
EXTT8=
EXTT9=
EXTT10=
EXTT11=
PLAYORDER=
